<svg width="36" height="15" viewBox="0 0 36 15" fill="none" xmlns="http://www.w3.org/2000/svg">
<path d="M15.7473 0.723999V5.044H17.6193V6.502H15.7473V11.272H12.4713V0.723999H15.7473ZM0.699322 1.192H4.51532V0.075999H7.79132V1.192H11.6073V2.578H0.699322V1.192ZM0.843322 6.07C0.843322 5.134 1.08932 4.42 1.58132 3.928C2.07332 3.436 2.78732 3.19 3.72332 3.19H8.58332C9.51932 3.19 10.2333 3.436 10.7253 3.928C11.2173 4.42 11.4633 5.134 11.4633 6.07V6.466C11.4633 7.402 11.2173 8.116 10.7253 8.608C10.2333 9.1 9.51932 9.346 8.58332 9.346H3.72332C2.78732 9.346 2.07332 9.1 1.58132 8.608C1.08932 8.116 0.843322 7.402 0.843322 6.466V6.07ZM1.61732 10.138H4.89332V13.126H15.8733V14.476H3.23732C2.70932 14.476 2.30732 14.338 2.03132 14.062C1.75532 13.786 1.61732 13.384 1.61732 12.856V10.138ZM4.13732 7.096C4.13732 7.696 4.43732 7.996 5.03732 7.996H7.26932C7.86932 7.996 8.16932 7.696 8.16932 7.096V5.422C8.16932 4.822 7.86932 4.522 7.26932 4.522H5.03732C4.43732 4.522 4.13732 4.822 4.13732 5.422V7.096ZM23.6673 10.858C22.9473 10.858 22.5873 11.218 22.5873 11.938V12.154C22.5873 12.874 22.9473 13.234 23.6673 13.234H30.8673C31.5873 13.234 31.9473 12.874 31.9473 12.154V11.938C31.9473 11.218 31.5873 10.858 30.8673 10.858H23.6673ZM20.8593 2.29C21.0033 1.834 21.2193 1.492 21.5073 1.264C21.7953 1.024 22.1793 0.903999 22.6593 0.903999H29.7873V3.982H31.6593V0.723999H34.9353V8.716H31.6593V5.44H29.7873V8.716H26.5653V2.272H24.5313C24.2193 2.272 24.0153 2.428 23.9193 2.74L21.9393 8.716H18.7353L20.8593 2.29ZM19.2573 12.046C19.2573 11.218 19.5033 10.594 19.9953 10.174C20.4873 9.742 21.2013 9.526 22.1373 9.526H32.4153C33.3513 9.526 34.0653 9.742 34.5573 10.174C35.0493 10.594 35.2953 11.218 35.2953 12.046C35.2953 12.874 35.0493 13.498 34.5573 13.918C34.0653 14.35 33.3513 14.566 32.4153 14.566H22.1373C21.2013 14.566 20.4873 14.35 19.9953 13.918C19.5033 13.498 19.2573 12.874 19.2573 12.046Z" fill="black"/>
</svg>
