<svg width="20" height="20" viewBox="0 0 20 20" fill="none" xmlns="http://www.w3.org/2000/svg">
<path d="M9.99988 2.08301C10.98 2.08271 11.9343 2.39658 12.7229 2.97857C13.5115 3.56055 14.0927 4.37999 14.3814 5.31661C14.67 6.25323 14.6508 7.25771 14.3265 8.1826C14.0023 9.1075 13.3901 9.90411 12.5799 10.4555C13.9863 10.9713 15.2061 11.8963 16.0823 13.1113C16.9585 14.3263 17.4511 15.7757 17.4965 17.273C17.5008 17.3561 17.4884 17.4392 17.4601 17.5175C17.4318 17.5958 17.3881 17.6676 17.3317 17.7287C17.2753 17.7899 17.2072 17.8392 17.1315 17.8737C17.0557 17.9082 16.9739 17.9272 16.8907 17.9297C16.8075 17.9321 16.7247 17.9179 16.6471 17.8879C16.5694 17.8579 16.4986 17.8127 16.4387 17.755C16.3787 17.6972 16.3309 17.6281 16.2981 17.5516C16.2653 17.4751 16.248 17.3929 16.2474 17.3097C16.1978 15.6859 15.5178 14.1452 14.3517 13.0142C13.1855 11.8831 11.6248 11.2506 10.0003 11.2506C8.37575 11.2506 6.81504 11.8831 5.6489 13.0142C4.48276 14.1452 3.80284 15.6859 3.75321 17.3097C3.74824 17.4754 3.67762 17.6324 3.55689 17.7461C3.43617 17.8598 3.27522 17.9209 3.10946 17.9159C2.9437 17.911 2.78671 17.8403 2.67301 17.7196C2.55932 17.5989 2.49824 17.4379 2.50321 17.2722C2.54883 15.775 3.04146 14.3258 3.91768 13.1109C4.7939 11.8961 6.01362 10.9713 7.41988 10.4555C6.60962 9.90411 5.99744 9.1075 5.67321 8.1826C5.34898 7.25771 5.32976 6.25323 5.61839 5.31661C5.90701 4.37999 6.48827 3.56055 7.27684 2.97857C8.06542 2.39658 9.01979 2.08271 9.99988 2.08301ZM6.66654 6.66634C6.66654 7.5504 7.01773 8.39824 7.64286 9.02336C8.26798 9.64849 9.11582 9.99967 9.99988 9.99967C10.8839 9.99967 11.7318 9.64849 12.3569 9.02336C12.982 8.39824 13.3332 7.5504 13.3332 6.66634C13.3332 5.78229 12.982 4.93444 12.3569 4.30932C11.7318 3.6842 10.8839 3.33301 9.99988 3.33301C9.11582 3.33301 8.26798 3.6842 7.64286 4.30932C7.01773 4.93444 6.66654 5.78229 6.66654 6.66634Z" fill="#BDBDBD"/>
</svg>
